<svg width="578" height="284" viewBox="0 0 578 284" fill="none" xmlns="http://www.w3.org/2000/svg">
<path opacity="0.5" d="M0.220215 -42.247L151.537 284H152.208L151.254 281.942L312.415 206.976L348.141 283.985H348.811L312.966 206.707L474.127 131.741L544.73 283.97H545.4L474.678 131.487L635.839 56.5205L710.701 217.907L568.676 283.97H570.121L710.969 218.458L737 274.575V273.129L711.52 218.205L737 206.349V205.678L711.267 217.653L636.405 56.2669L737 9.4855V8.81448L636.152 55.7151L561.29 -105.671L722.465 -180.638L737 -149.306V-150.752L723.016 -180.891L737 -187.393V-188.064L722.763 -181.443L647.901 -342.829L737 -384.272V-384.943L0.488259 -42.3811L0.220215 -42.2619V-42.247ZM151.001 281.39L76.1394 120.004L237.3 45.0375L312.162 206.424L151.001 281.39ZM312.713 206.17L237.851 44.7841L399.012 -30.1825L473.874 131.204L312.713 206.17ZM635.601 55.9986L474.44 130.965L399.578 -30.4211L560.739 -105.388L635.601 55.9986ZM647.365 -342.561L722.227 -181.174L561.051 -106.208L486.19 -267.594L647.365 -342.561ZM485.639 -267.341L560.5 -105.954L399.34 -30.9878L324.478 -192.374L485.639 -267.341ZM323.912 -192.121L398.774 -30.7343L237.613 44.2324L162.751 -117.154L323.912 -192.121ZM162.2 -116.9L237.062 44.4858L75.9012 119.452L1.03925 -41.9338L162.2 -116.9Z" fill="#040323" fill-opacity="0.1"/>
</svg>
