<svg width="24" height="24" viewBox="0 0 24 24" fill="none" xmlns="http://www.w3.org/2000/svg">
<path d="M17 2H7C5.67392 2 4.40215 2.52678 3.46447 3.46447C2.52678 4.40215 2 5.67392 2 7V17C2 18.3261 2.52678 19.5979 3.46447 20.5355C4.40215 21.4732 5.67392 22 7 22H17C18.3261 22 19.5979 21.4732 20.5355 20.5355C21.4732 19.5979 22 18.3261 22 17V7C22 5.67392 21.4732 4.40215 20.5355 3.46447C19.5979 2.52678 18.3261 2 17 2Z" stroke="#ECAF21" stroke-width="1.5" stroke-linecap="round" stroke-linejoin="round"/>
<path d="M17.5 6.5H17.51M16 11.37C16.1557 12.4195 15.8881 13.4878 15.2561 14.3399C14.6241 15.1921 13.6794 15.7583 12.63 15.914C12.1103 15.9911 11.5806 15.9651 11.071 15.8374C10.5614 15.7098 10.082 15.483 9.66003 15.1701C8.80787 14.5381 8.24166 13.5935 8.08598 12.544C7.9303 11.4945 8.19789 10.4262 8.82989 9.57405C9.46189 8.72188 10.4065 8.15568 11.456 8C12.5054 7.84432 13.5738 8.11191 14.4259 8.74391C15.2781 9.3759 15.8443 10.3205 16 11.37Z" stroke="#ECAF21" stroke-width="1.5" stroke-linecap="round" stroke-linejoin="round"/>
</svg>
