<svg width="739" height="671" viewBox="0 0 739 671" fill="none" xmlns="http://www.w3.org/2000/svg">
<path opacity="0.5" d="M0.682068 344.03L152.315 671H152.987L152.032 668.938L313.529 593.805L349.329 670.985H350.001L314.081 593.536L475.578 518.403L546.328 670.97H547L476.13 518.149L637.628 443.016L712.646 604.76L570.325 670.97H571.772L712.914 605.313L739 661.554V660.105L713.467 605.059L739 593.177V592.505L713.213 604.506L638.195 442.762L739 395.877V395.204L637.941 442.209L562.923 280.465L724.435 205.332L739 236.733V235.284L724.987 205.078L739 198.562V197.889L724.734 204.525L649.715 42.7809L739 1.24643V0.573853L0.950672 343.895L0.682068 344.015V344.03ZM151.778 668.385L76.7598 506.641L238.257 431.508L313.275 593.252L151.778 668.385ZM313.827 592.998L238.809 431.254L400.306 356.121L475.325 517.865L313.827 592.998ZM637.389 442.493L475.892 517.626L400.873 355.882L562.371 280.749L637.389 442.493ZM649.178 43.0499L724.196 204.794L562.684 279.927L487.666 118.183L649.178 43.0499ZM487.114 118.437L562.132 280.181L400.635 355.314L325.617 193.57L487.114 118.437ZM325.049 193.824L400.068 355.568L238.57 430.701L163.552 268.957L325.049 193.824ZM163 269.211L238.018 430.955L76.521 506.088L1.50282 344.344L163 269.211Z" fill="#2D2D2D" fill-opacity="0.1"/>
</svg>
