<svg width="100" height="100" viewBox="0 0 100 100" fill="none" xmlns="http://www.w3.org/2000/svg">
<path d="M0.75 2.217L2.25 4.109V8.576C2.21 10.264 4.167 11.776 5.999 13.328M5.231 7.358L7 9.17C7.11162 9.28458 7.24472 9.37605 7.3917 9.43919C7.53867 9.50233 7.69664 9.5359 7.85659 9.53799C8.01654 9.54008 8.17533 9.51064 8.32391 9.45137C8.47248 9.39209 8.60792 9.30412 8.7225 9.1925C8.83708 9.08088 8.92855 8.94778 8.99169 8.8008C9.05483 8.65383 9.0884 8.49586 9.09049 8.33591C9.09258 8.17596 9.06315 8.01717 9.00387 7.86859C8.94459 7.72002 8.85662 7.58458 8.745 7.47L5.994 4.663V3.2C5.84455 2.32347 5.51124 1.4885 5.016 0.75" stroke="black" stroke-width="1.5" stroke-linecap="round" stroke-linejoin="round"/>
<path d="M6 8.13794V20.2499C6 20.6478 6.15804 21.0293 6.43934 21.3106C6.72064 21.5919 7.10218 21.7499 7.5 21.7499H14.25M23.25 21.7819L21.75 19.8899V15.4239C21.785 13.9649 20.329 12.6379 18.75 11.3039" stroke="black" stroke-width="1.5" stroke-linecap="round" stroke-linejoin="round"/>
<path d="M9.75 3.75H17.25C17.6478 3.75 18.0294 3.90804 18.3107 4.18934C18.592 4.47064 18.75 4.85218 18.75 5.25V16.62L17 14.83C16.7746 14.5986 16.4664 14.4662 16.1434 14.462C15.8204 14.4578 15.5089 14.5821 15.2775 14.8075C15.0461 15.0329 14.9137 15.3411 14.9095 15.6641C14.9053 15.9871 15.0296 16.2986 15.255 16.53L18.01 19.338V20.8C18.16 21.675 18.493 22.509 18.988 23.246" stroke="black" stroke-width="1.5" stroke-linecap="round" stroke-linejoin="round"/>
<path d="M22.2222 22.7778H66.6667V27.2223H22.2222V22.7778ZM22.2222 45.0001H44.6834V49.4445H22.2222V45.0001ZM64.9389 33.8889H22.2222V38.3334H60.4972L64.9389 33.8889ZM35.5389 80.7556C36.2858 81.612 37.2336 82.2694 38.2974 82.6689C39.3611 83.0684 40.5074 83.1975 41.6334 83.0445H63.3111C63.8268 83.0445 64.3214 82.8396 64.6861 82.475C65.0507 82.1103 65.2556 81.6157 65.2556 81.1C65.2556 80.5844 65.0507 80.0898 64.6861 79.7251C64.3214 79.3605 63.8268 79.1556 63.3111 79.1556H41.6334C39.1028 79.1112 39.5528 76.9139 39.9084 76.2334C40.3709 75.4341 40.732 74.5803 40.9834 73.6917C41.1509 72.9764 41.0734 72.2255 40.7631 71.5596C40.4528 70.8937 39.9277 70.3513 39.2722 70.0195C38.2206 69.5462 37.043 69.4304 35.9193 69.6897C34.7956 69.9491 33.7878 70.5693 33.05 71.4556C32.0945 72.4417 30.7667 73.9501 29.4945 75.4167C30.2806 72.3362 31.3 68.3834 32.3 64.5278C32.5866 63.6493 32.5295 62.6949 32.1404 61.8567C31.7512 61.0186 31.0588 60.3591 30.2028 60.0112C29.2548 59.6859 28.2187 59.7324 27.3036 60.1412C26.3885 60.55 25.6625 61.2908 25.2722 62.2139C24.0722 64.5223 14.5722 80.4417 14.4778 80.6028C14.3468 80.8221 14.2603 81.065 14.2233 81.3176C14.1862 81.5703 14.1992 81.8278 14.2616 82.0754C14.3877 82.5755 14.7073 83.005 15.15 83.2695C15.5928 83.534 16.1225 83.6117 16.6226 83.4857C17.1227 83.3596 17.5522 83.04 17.8167 82.5973C18.1722 82.0001 25.7556 69.2973 28.1472 65.0556C26.3472 72.0001 24.3639 79.7278 24.2472 80.4223C24.1164 80.9328 24.156 81.4722 24.3601 81.9581C24.5642 82.4441 24.9216 82.8499 25.3778 83.1139C25.8863 83.3661 26.4642 83.4418 27.0205 83.3292C27.5768 83.2165 28.0797 82.9219 28.45 82.4917C28.8 82.1751 29.4556 81.4223 31.1084 79.5028C32.6482 77.6917 34.2254 75.9126 35.8389 74.1667C36.4445 73.5278 36.8111 73.8112 36.4556 74.4389C35.7598 75.3177 35.3086 76.3647 35.1476 77.474C34.9867 78.5832 35.1216 79.7153 35.5389 80.7556Z" fill="black"/>
<path d="M22.2222 22.7778H66.6667V27.2223H22.2222V22.7778ZM22.2222 45.0001H44.6834V49.4445H22.2222V45.0001ZM64.9389 33.8889H22.2222V38.3334H60.4972L64.9389 33.8889ZM35.5389 80.7556C36.2858 81.612 37.2336 82.2694 38.2974 82.6689C39.3611 83.0684 40.5074 83.1975 41.6334 83.0445H63.3111C63.8268 83.0445 64.3214 82.8396 64.6861 82.475C65.0507 82.1103 65.2556 81.6157 65.2556 81.1C65.2556 80.5844 65.0507 80.0898 64.6861 79.7251C64.3214 79.3605 63.8268 79.1556 63.3111 79.1556H41.6334C39.1028 79.1112 39.5528 76.9139 39.9084 76.2334C40.3709 75.4341 40.732 74.5803 40.9834 73.6917C41.1509 72.9764 41.0734 72.2255 40.7631 71.5596C40.4528 70.8937 39.9277 70.3513 39.2722 70.0195C38.2206 69.5462 37.043 69.4304 35.9193 69.6897C34.7956 69.9491 33.7878 70.5693 33.05 71.4556C32.0945 72.4417 30.7667 73.9501 29.4945 75.4167C30.2806 72.3362 31.3 68.3834 32.3 64.5278C32.5866 63.6493 32.5295 62.6949 32.1404 61.8567C31.7512 61.0186 31.0588 60.3591 30.2028 60.0112C29.2548 59.6859 28.2187 59.7324 27.3036 60.1412C26.3885 60.55 25.6625 61.2908 25.2722 62.2139C24.0722 64.5223 14.5722 80.4417 14.4778 80.6028C14.3468 80.8221 14.2603 81.065 14.2233 81.3176C14.1862 81.5703 14.1992 81.8278 14.2616 82.0754C14.3877 82.5755 14.7073 83.005 15.15 83.2695C15.5928 83.534 16.1225 83.6117 16.6226 83.4857C17.1227 83.3596 17.5522 83.04 17.8167 82.5973C18.1722 82.0001 25.7556 69.2973 28.1472 65.0556C26.3472 72.0001 24.3639 79.7278 24.2472 80.4223C24.1164 80.9328 24.156 81.4722 24.3601 81.9581C24.5642 82.4441 24.9216 82.8499 25.3778 83.1139C25.8863 83.3661 26.4642 83.4418 27.0205 83.3292C27.5768 83.2165 28.0797 82.9219 28.45 82.4917C28.8 82.1751 29.4556 81.4223 31.1084 79.5028C32.6482 77.6917 34.2254 75.9126 35.8389 74.1667C36.4445 73.5278 36.8111 73.8112 36.4556 74.4389C35.7598 75.3177 35.3086 76.3647 35.1476 77.474C34.9867 78.5832 35.1216 79.7153 35.5389 80.7556Z" fill="#040323"/>
<path d="M77.7779 60.264V88.889H11.1112V11.1112H77.7779V24.9807L81.4723 21.2862C82.041 20.7252 82.6645 20.2227 83.3334 19.7862V8.33344C83.3334 7.59673 83.0408 6.89019 82.5198 6.36926C81.9989 5.84832 81.2924 5.55566 80.5557 5.55566H8.33344C7.59673 5.55566 6.89019 5.84832 6.36926 6.36926C5.84832 6.89019 5.55566 7.59673 5.55566 8.33344V91.6668C5.55566 92.4035 5.84832 93.11 6.36926 93.631C6.89019 94.1519 7.59673 94.4445 8.33344 94.4445H80.5557C81.2924 94.4445 81.9989 94.1519 82.5198 93.631C83.0408 93.11 83.3334 92.4035 83.3334 91.6668V59.5196C81.6304 60.4247 79.6591 60.6889 77.7779 60.264Z" fill="black"/>
<path d="M77.7779 60.264V88.889H11.1112V11.1112H77.7779V24.9807L81.4723 21.2862C82.041 20.7252 82.6645 20.2227 83.3334 19.7862V8.33344C83.3334 7.59673 83.0408 6.89019 82.5198 6.36926C81.9989 5.84832 81.2924 5.55566 80.5557 5.55566H8.33344C7.59673 5.55566 6.89019 5.84832 6.36926 6.36926C5.84832 6.89019 5.55566 7.59673 5.55566 8.33344V91.6668C5.55566 92.4035 5.84832 93.11 6.36926 93.631C6.89019 94.1519 7.59673 94.4445 8.33344 94.4445H80.5557C81.2924 94.4445 81.9989 94.1519 82.5198 93.631C83.0408 93.11 83.3334 92.4035 83.3334 91.6668V59.5196C81.6304 60.4247 79.6591 60.6889 77.7779 60.264Z" fill="#040323"/>
<path d="M94.8001 32.9473L93.3473 31.4945C94.0888 30.5129 94.464 29.3031 94.4083 28.0742C94.3525 26.8452 93.8691 25.6744 93.0418 24.764C91.9665 23.8163 90.5604 23.3319 89.1297 23.4161C87.6989 23.5004 86.3594 24.1466 85.4029 25.214L50.6112 60.0001L48.2862 68.7279C48.2494 68.8421 48.2449 68.9642 48.2733 69.0808C48.3016 69.1974 48.3617 69.3039 48.4468 69.3884C48.532 69.473 48.6388 69.5323 48.7556 69.5599C48.8724 69.5874 48.9945 69.5821 49.1084 69.5445L57.8057 67.1918L90.2834 34.714L91.6556 36.089C91.7518 36.1845 91.8281 36.2981 91.8802 36.4233C91.9323 36.5484 91.9591 36.6826 91.9591 36.8182C91.9591 36.9537 91.9323 37.0879 91.8802 37.2131C91.8281 37.3382 91.7518 37.4518 91.6556 37.5473L77.9973 51.2057C77.5807 51.6226 77.3468 52.188 77.3471 52.7775C77.3473 53.3669 77.5817 53.9321 77.9987 54.3487C78.4157 54.7653 78.9811 54.9992 79.5705 54.999C80.16 54.9987 80.7252 54.7643 81.1418 54.3473L94.8001 40.689C95.3091 40.1807 95.7129 39.5771 95.9884 38.9127C96.2638 38.2483 96.4057 37.5361 96.4057 36.8168C96.4057 36.0975 96.2638 35.3853 95.9884 34.7208C95.7129 34.0564 95.3091 33.4528 94.8001 32.9445" fill="#040323"/>
<path d="M94.8001 32.9473L93.3473 31.4945C94.0888 30.5129 94.464 29.3031 94.4083 28.0742C94.3525 26.8452 93.8691 25.6744 93.0418 24.764C91.9665 23.8163 90.5604 23.3319 89.1297 23.4161C87.6989 23.5004 86.3594 24.1466 85.4029 25.214L50.6112 60.0001L48.2862 68.7279C48.2494 68.8421 48.2449 68.9642 48.2733 69.0808C48.3016 69.1974 48.3617 69.3039 48.4468 69.3884C48.532 69.473 48.6388 69.5323 48.7556 69.5599C48.8724 69.5874 48.9945 69.5821 49.1084 69.5445L57.8057 67.1918L90.2834 34.714L91.6556 36.089C91.7518 36.1845 91.8281 36.2981 91.8802 36.4233C91.9323 36.5484 91.9591 36.6826 91.9591 36.8182C91.9591 36.9537 91.9323 37.0879 91.8802 37.2131C91.8281 37.3382 91.7518 37.4518 91.6556 37.5473L77.9973 51.2057C77.5807 51.6226 77.3468 52.188 77.3471 52.7775C77.3473 53.3669 77.5817 53.9321 77.9987 54.3487C78.4157 54.7653 78.9811 54.9992 79.5705 54.999C80.16 54.9987 80.7252 54.7643 81.1418 54.3473L94.8001 40.689C95.3091 40.1807 95.7129 39.5771 95.9884 38.9127C96.2638 38.2483 96.4057 37.5361 96.4057 36.8168C96.4057 36.0975 96.2638 35.3853 95.9884 34.7208C95.7129 34.0564 95.3091 33.4528 94.8001 32.9445" fill="black"/>
</svg>
