<svg width="16" height="16" viewBox="0 0 16 16" fill="none" xmlns="http://www.w3.org/2000/svg">
<path d="M14.125 1.25H13.375V0H12.125V1.25H3.875V0H2.625V1.25H1.875C0.841125 1.25 0 2.09113 0 3.125V14.125C0 15.1589 0.841125 16 1.875 16H14.125C15.1589 16 16 15.1589 16 14.125V3.125C16 2.09113 15.1589 1.25 14.125 1.25ZM14.75 14.125C14.75 14.4696 14.4696 14.75 14.125 14.75H1.875C1.53038 14.75 1.25 14.4696 1.25 14.125V5.875H14.75V14.125ZM14.75 4.625H1.25V3.125C1.25 2.78038 1.53038 2.5 1.875 2.5H2.625V3.75H3.875V2.5H12.125V3.75H13.375V2.5H14.125C14.4696 2.5 14.75 2.78038 14.75 3.125V4.625Z" fill="black"/>
<path d="M3.65039 7.18799H2.40039V8.43799H3.65039V7.18799Z" fill="black"/>
<path d="M6.15039 7.18799H4.90039V8.43799H6.15039V7.18799Z" fill="black"/>
<path d="M8.65039 7.18799H7.40039V8.43799H8.65039V7.18799Z" fill="black"/>
<path d="M11.1504 7.18799H9.90039V8.43799H11.1504V7.18799Z" fill="black"/>
<path d="M13.6504 7.18799H12.4004V8.43799H13.6504V7.18799Z" fill="black"/>
<path d="M3.65039 9.68799H2.40039V10.938H3.65039V9.68799Z" fill="black"/>
<path d="M6.15039 9.68799H4.90039V10.938H6.15039V9.68799Z" fill="black"/>
<path d="M8.65039 9.68799H7.40039V10.938H8.65039V9.68799Z" fill="black"/>
<path d="M11.1504 9.68799H9.90039V10.938H11.1504V9.68799Z" fill="black"/>
<path d="M3.65039 12.188H2.40039V13.438H3.65039V12.188Z" fill="black"/>
<path d="M6.15039 12.188H4.90039V13.438H6.15039V12.188Z" fill="black"/>
<path d="M8.65039 12.188H7.40039V13.438H8.65039V12.188Z" fill="black"/>
<path d="M11.1504 12.188H9.90039V13.438H11.1504V12.188Z" fill="black"/>
<path d="M13.6504 9.68799H12.4004V10.938H13.6504V9.68799Z" fill="black"/>
</svg>
