<svg width="11" height="16" viewBox="0 0 11 16" fill="none" xmlns="http://www.w3.org/2000/svg">
<path d="M5.5 0C2.4673 0 0 2.52338 0 5.625C0 6.67294 0.283831 7.69563 0.820997 8.58288L5.18693 15.7784C5.27056 15.9163 5.4179 16 5.57636 16C5.57758 16 5.57877 16 5.57999 16C5.73983 15.9987 5.88748 15.9124 5.96958 15.7721L10.2242 8.50688C10.7318 7.63838 11 6.64184 11 5.625C11 2.52338 8.5327 0 5.5 0ZM9.43757 8.02556L5.56942 14.6308L1.6001 8.08894C1.15298 7.35044 0.910556 6.49844 0.910556 5.625C0.910556 3.04031 2.97275 0.93125 5.5 0.93125C8.02725 0.93125 10.0864 3.04031 10.0864 5.625C10.0864 6.47253 9.85994 7.30275 9.43757 8.02556Z" fill="black"/>
<path d="M5.5498 2.81201C4.03345 2.81201 2.7998 4.0737 2.7998 5.62451C2.7998 7.16542 4.01338 8.43701 5.5498 8.43701C7.10517 8.43701 8.2998 7.14848 8.2998 5.62451C8.2998 4.0737 7.06615 2.81201 5.5498 2.81201ZM5.5498 7.50576C4.53361 7.50576 3.71036 6.66098 3.71036 5.62451C3.71036 4.59064 4.5389 3.74326 5.5498 3.74326C6.5607 3.74326 7.38619 4.59064 7.38619 5.62451C7.38619 6.64585 6.58209 7.50576 5.5498 7.50576Z" fill="black"/>
</svg>
