<svg width="16" height="16" viewBox="0 0 16 16" fill="none" xmlns="http://www.w3.org/2000/svg">
<path d="M15.8389 12.5333L14.1141 10.8085C14.1129 10.8073 14.1119 10.8059 14.1107 10.8046C14.1094 10.8034 14.1081 10.8024 14.1069 10.8011L11.4225 8.11677L15.8367 3.70252C16.0517 3.48761 16.0517 3.13916 15.8368 2.92432L13.0759 0.162743C12.9727 0.0595797 12.8327 0.00154085 12.6867 0.00154085C12.6685 0.00154085 12.6503 0.00242134 12.6324 0.00425569C12.5064 0.0167293 12.3879 0.0724201 12.2976 0.16267L9.53649 2.92366C9.53612 2.92403 9.5359 2.92439 9.53553 2.92476L7.88256 4.57765L6.92335 3.61836C6.9232 3.61822 6.92313 3.61814 6.92298 3.618C6.92283 3.61785 6.92276 3.61778 6.92261 3.61763L5.19928 1.89422C5.19766 1.89253 5.19634 1.89077 5.19466 1.88916C5.19304 1.88755 5.19128 1.88622 5.18967 1.88461L3.46641 0.161203C3.36324 0.0579654 3.22324 0 3.0773 0C2.93136 0 2.79137 0.0579654 2.68813 0.161203L0.161203 2.68864C-0.0537097 2.90355 -0.0536364 3.25201 0.161203 3.46685L4.57729 7.88286L0.161203 12.2989C0.0579654 12.4022 0 12.5421 0 12.688V15.4497C0 15.5956 0.0579654 15.7356 0.161203 15.8389C0.26444 15.942 0.404437 16 0.550378 16L3.31181 15.9995C3.45775 15.9995 3.5976 15.9415 3.70084 15.8384L8.11655 11.4226L12.5329 15.8388C12.6403 15.9462 12.7812 15.9999 12.922 15.9999C13.0628 15.9999 13.2036 15.9462 13.3111 15.8388L15.8389 13.3116C15.9421 13.2084 16.0001 13.0684 16.0001 12.9224C16.0001 12.7765 15.9422 12.6365 15.8389 12.5333ZM12.6862 5.29606L10.7038 3.31298L12.6866 1.3302L14.6692 3.31335L12.6862 5.29606ZM1.32858 3.07767L3.0773 1.32866L4.02713 2.27856L3.15251 3.15339C2.93767 3.36838 2.93767 3.71683 3.15259 3.9316C3.26008 4.03909 3.40081 4.09273 3.54169 4.09273C3.68249 4.09273 3.82344 4.03902 3.93086 3.93152L4.80533 3.05683L5.75553 4.00703L4.54757 5.21498C4.33266 5.42989 4.33266 5.77835 4.54757 5.99326C4.65499 6.10075 4.79587 6.15446 4.93667 6.15446C5.07748 6.15446 5.21836 6.10075 5.32578 5.99333L6.53388 4.78538L7.10436 5.35579L5.35564 7.10458L1.32858 3.07767ZM3.08376 14.8989L1.10061 14.8993V12.916L9.92552 4.09119L11.9082 6.07448L3.08376 14.8989ZM12.922 14.6714L8.89491 10.6443L10.6441 8.89498L11.2147 9.46553L10.0064 10.6738C9.79154 10.8888 9.79154 11.2371 10.0064 11.4521C10.1139 11.5595 10.2547 11.6132 10.3955 11.6132C10.5364 11.6132 10.6772 11.5595 10.7847 11.4521L11.9929 10.2438L12.943 11.1939L12.0685 12.0685C11.8536 12.2834 11.8536 12.6318 12.0685 12.8467C12.1759 12.9541 12.3168 13.0078 12.4576 13.0078C12.5984 13.0078 12.7393 12.9541 12.8467 12.8466L13.7212 11.9721L14.6714 12.9222L12.922 14.6714Z" fill="black"/>
</svg>
